<svg width="16" height="16" viewBox="0 0 16 16" fill="none" xmlns="http://www.w3.org/2000/svg">
<path d="M4.79999 9.6C4.57332 9.6 4.38319 9.5232 4.22959 9.3696C4.07652 9.21653 3.99999 9.02667 3.99999 8.8C3.99999 8.57333 4.07652 8.3832 4.22959 8.2296C4.38319 8.07653 4.57332 8 4.79999 8C5.02666 8 5.21679 8.07653 5.37039 8.2296C5.52346 8.3832 5.59999 8.57333 5.59999 8.8C5.59999 9.02667 5.52346 9.21653 5.37039 9.3696C5.21679 9.5232 5.02666 9.6 4.79999 9.6ZM7.99999 9.6C7.77332 9.6 7.58346 9.5232 7.43039 9.3696C7.27679 9.21653 7.19999 9.02667 7.19999 8.8C7.19999 8.57333 7.27679 8.3832 7.43039 8.2296C7.58346 8.07653 7.77332 8 7.99999 8C8.22666 8 8.41679 8.07653 8.57039 8.2296C8.72346 8.3832 8.79999 8.57333 8.79999 8.8C8.79999 9.02667 8.72346 9.21653 8.57039 9.3696C8.41679 9.5232 8.22666 9.6 7.99999 9.6ZM11.2 9.6C10.9733 9.6 10.7835 9.5232 10.6304 9.3696C10.4768 9.21653 10.4 9.02667 10.4 8.8C10.4 8.57333 10.4768 8.3832 10.6304 8.2296C10.7835 8.07653 10.9733 8 11.2 8C11.4267 8 11.6165 8.07653 11.7696 8.2296C11.9232 8.3832 12 8.57333 12 8.8C12 9.02667 11.9232 9.21653 11.7696 9.3696C11.6165 9.5232 11.4267 9.6 11.2 9.6ZM2.39999 16C1.95999 16 1.58319 15.8435 1.26959 15.5304C0.956521 15.2168 0.799988 14.84 0.799988 14.4V3.2C0.799988 2.76 0.956521 2.38347 1.26959 2.0704C1.58319 1.7568 1.95999 1.6 2.39999 1.6H3.19999V0.800001C3.19999 0.358173 3.55816 0 3.99999 0C4.44182 0 4.79999 0.358172 4.79999 0.8V1.6H11.2V0.8C11.2 0.358173 11.5582 0 12 0C12.4418 0 12.8 0.358172 12.8 0.8V1.6H13.6C14.04 1.6 14.4168 1.7568 14.7304 2.0704C15.0435 2.38347 15.2 2.76 15.2 3.2V14.4C15.2 14.84 15.0435 15.2168 14.7304 15.5304C14.4168 15.8435 14.04 16 13.6 16H2.39999ZM2.39999 13.4C2.39999 13.9523 2.8477 14.4 3.39999 14.4H12.6C13.1523 14.4 13.6 13.9523 13.6 13.4V7.4C13.6 6.84772 13.1523 6.4 12.6 6.4H3.39999C2.8477 6.4 2.39999 6.84772 2.39999 7.4V13.4Z" fill="#647C82"/>
</svg>
