<svg width="12" height="11" viewBox="0 0 12 11" fill="none" xmlns="http://www.w3.org/2000/svg">
<path fill-rule="evenodd" clip-rule="evenodd" d="M5.99998 10.9C8.98231 10.9 11.4 8.48234 11.4 5.50001C11.4 2.51767 8.98231 0.100006 5.99998 0.100006C3.01764 0.100006 0.599976 2.51767 0.599976 5.50001C0.599976 8.48234 3.01764 10.9 5.99998 10.9ZM4.56818 5.08051C4.56818 4.91942 4.63217 4.76493 4.74608 4.65103C4.85998 4.53712 5.01447 4.47313 5.17556 4.47313H5.9854C6.14649 4.47313 6.30097 4.53712 6.41488 4.65103C6.52879 4.76493 6.59278 4.91942 6.59278 5.08051V7.30756H6.79524C6.95632 7.30756 7.11081 7.37156 7.22472 7.48546C7.33862 7.59937 7.40262 7.75386 7.40262 7.91494C7.40262 8.07603 7.33862 8.23052 7.22472 8.34442C7.11081 8.45833 6.95632 8.52232 6.79524 8.52232H5.17556C5.01447 8.52232 4.85998 8.45833 4.74608 8.34442C4.63217 8.23052 4.56818 8.07603 4.56818 7.91494C4.56818 7.75386 4.63217 7.59937 4.74608 7.48546C4.85998 7.37156 5.01447 7.30756 5.17556 7.30756H5.37802V5.68789H5.17556C5.01447 5.68789 4.85998 5.6239 4.74608 5.50999C4.63217 5.39609 4.56818 5.2416 4.56818 5.08051ZM5.78294 3.66329C5.99772 3.66329 6.20371 3.57797 6.35558 3.4261C6.50745 3.27422 6.59278 3.06824 6.59278 2.85346C6.59278 2.63867 6.50745 2.43269 6.35558 2.28081C6.20371 2.12894 5.99772 2.04362 5.78294 2.04362C5.56816 2.04362 5.36217 2.12894 5.2103 2.28081C5.05842 2.43269 4.9731 2.63867 4.9731 2.85346C4.9731 3.06824 5.05842 3.27422 5.2103 3.4261C5.36217 3.57797 5.56816 3.66329 5.78294 3.66329Z" fill="#6F8A90"/>
</svg>
