<svg width="16" height="14" viewBox="0 0 16 14" fill="none" xmlns="http://www.w3.org/2000/svg">
<path d="M8.56567 0.334313C8.41565 0.184284 8.21216 0.0999985 7.99999 0.0999985C7.78782 0.0999985 7.58433 0.184284 7.4343 0.334313L4.8743 2.89431C4.56189 3.20673 4.56189 3.71327 4.8743 4.02568C5.18672 4.3381 5.69326 4.3381 6.00568 4.02568L7.19999 2.83137V8.58C7.19999 9.02183 7.55816 9.38 7.99999 9.38C8.44182 9.38 8.79999 9.02183 8.79999 8.58V2.83137L9.9943 4.02568C10.3067 4.3381 10.8133 4.3381 11.1257 4.02568C11.4381 3.71327 11.4381 3.20673 11.1257 2.89431L8.56567 0.334313Z" fill="#2C712A"/>
<path d="M2.39999 9.7C2.39999 10.3667 2.55999 11.7 3.19999 11.7H12.8C13.0667 11.7 13.6 11.3 13.6 9.7C13.7333 9.43333 14.16 8.98 14.8 9.3C14.9333 9.3 15.2 9.46 15.2 10.1C15.2 10.9 15.2 13.3 12.8 13.3H3.19999C2.39999 13.3 0.799988 12.66 0.799988 10.1C0.799988 9.96666 0.879988 9.62 1.19999 9.3C1.59999 8.9 2.39999 9.3 2.39999 9.7Z" fill="#2C712A"/>
</svg>
