<svg width="10" height="11" viewBox="0 0 10 11" fill="none" xmlns="http://www.w3.org/2000/svg">
<path d="M7.67758 4.25H6.75008V1.33333C6.75008 1.0125 6.48758 0.75 6.16675 0.75H3.83341C3.51258 0.75 3.25008 1.0125 3.25008 1.33333V4.25H2.32258C1.80341 4.25 1.54091 4.88 1.90841 5.2475L4.58591 7.925C4.81341 8.1525 5.18091 8.1525 5.40841 7.925L8.08592 5.2475C8.45341 4.88 8.19675 4.25 7.67758 4.25ZM0.916748 10.0833C0.916748 10.4042 1.17925 10.6667 1.50008 10.6667H8.50008C8.82091 10.6667 9.08341 10.4042 9.08341 10.0833C9.08341 9.7625 8.82091 9.5 8.50008 9.5H1.50008C1.17925 9.5 0.916748 9.7625 0.916748 10.0833Z" fill="#6F8A90"/>
</svg>
